<svg version="1" xmlns="http://www.w3.org/2000/svg" width="1365.333" height="1365.333" viewBox="0 0 1024.000000 1024.000000"><path d="M498.5 9.6c-14.8 2-19.3 2.9-28 5.1-66.8 17.3-136.2 79-195.2 173.8-74.6 119.9-125 277.6-129.1 404.4-1.8 54.7 2.7 97.5 14.9 143.4 14.2 53.3 38.2 101.2 71.5 143.2 11.7 14.7 41.9 44.8 57.4 57.1 47.2 37.5 103.1 62.8 162.5 73.4 32.7 5.8 76 6.4 109.5 1.4 62.8-9.3 122.1-35.1 172-74.8 15.4-12.3 45.6-42.3 57.4-57.1 53.2-66.6 83.4-152.4 86.5-245.3 1.8-55.7-4-111.1-18-172.2-34.4-150.1-109-296.1-193-377.5-42.8-41.5-84.4-65.1-128.3-73.1-8-1.5-34.2-2.6-40.1-1.8zM534.1 62c58.1 11.9 122.7 71.4 178.2 164.2C773.1 327.9 814.2 450.8 825.7 565c2.4 24.3 2.4 73.5 0 95-2.9 25.7-7.1 47.7-13.2 69C778.9 846.1 691 931.4 577.2 957.4c-40.9 9.4-89.5 9.4-130.4 0C328.3 930.3 238.4 839.3 208 715.7c-8.6-35.1-11.4-59.9-11.4-101.2-.1-36.8 1.8-60 8-97 20.6-123.4 75.5-255.6 143.8-346.3 46.1-61.1 95.9-99.7 141.1-109.2 12.6-2.6 31.6-2.6 44.6 0z"/><path d="M437 258v123h49v-90.1l13.1.3 13.1.3 18.3 44.5 18.4 44.5 26.5.3c16 .1 26.6-.1 26.6-.7 0-.5-9.7-23.5-21.5-51.1S559 278.5 559 278.1c0-.5 2.4-2.4 5.3-4.3 14.2-9.4 24.1-24.8 27.8-43.3 1.7-8.3 2-12.4 1.6-24.5-.8-24-5.6-36.9-18.7-50.1-8-8.1-14.8-12.4-24.7-15.8-13.6-4.6-20.7-5.1-68.4-5.1H437v123zm89.4-80.8c5.8 1.7 13.6 9.8 16.1 16.8 1.6 4.5 2 8 2 19 0 13.2-.1 13.6-3.3 20.2-3.7 7.6-9.5 13.2-15.6 15-2.5.8-10.8 1.3-21.6 1.3h-17.5l-.3-36.8-.2-36.7h18.1c11.3 0 19.7.5 22.3 1.2zM501 419.2c-21.2 1.8-39.6 7.2-61 17.6-23.7 11.5-42 25-64 47.1-49.4 49.6-83.3 117.6-92.2 185.1-1.9 14.7-1.6 50 .6 64.5 3.9 25.9 10.8 47.9 23 73 12.9 26.6 27.1 46.9 48.1 68.4 21.5 22 42.4 37.5 67 49.6 30.7 15.2 57.8 21.7 89.5 21.7 32 0 60.1-6.9 90.5-22.2 25.1-12.6 45.4-27.9 67-50.1 20.1-20.7 34.4-41.2 47.1-67.4 12.1-25.1 19.1-47 23-73 2.7-17.7 2.5-52-.4-71-14.6-94.2-78.2-187.4-153.5-224.9-22.1-11-42.1-16.9-61.7-18.1-5.2-.4-10.4-.7-11.5-.9-1.1-.2-6.3.1-11.5.6zm35.3 53.2c64.9 16.6 130.2 96.1 150.1 182.9 4.6 20 5.9 50.8 3.1 70.6-8.4 57.1-42.5 109.9-92.6 142.8-18.9 12.4-39 20.9-59.6 25-12.3 2.4-39.5 2.4-51.3-.1-37.9-8.1-74.6-30.6-102.7-63.1-33-38.2-50.3-83-50.3-130.3 0-30.7 6-58.7 19.2-90.2 31.3-74.5 90.7-131.3 146.3-140 9.7-1.5 26.7-.4 37.8 2.4z"/></svg>